<?xml version="1.0" standalone="no"?>
<!DOCTYPE svg PUBLIC "-//W3C//DTD SVG 20010904//EN"
 "http://www.w3.org/TR/2001/REC-SVG-20010904/DTD/svg10.dtd">
<svg version="1.0" xmlns="http://www.w3.org/2000/svg"
 width="4096.000000pt" height="2904.000000pt" viewBox="0 0 4096.000000 2904.000000"
 preserveAspectRatio="xMidYMid meet">
<metadata>
Created by potrace 1.16, written by Peter Selinger 2001-2019
</metadata>
<g transform="translate(0.000000,2904.000000) scale(0.100000,-0.100000)"
fill="#000000" stroke="none">
<path d="M21790 29038 c-4 -28 -12 -229 -20 -478 -5 -173 -17 -526 -25 -785
-8 -258 -19 -648 -25 -865 -5 -217 -19 -613 -30 -880 -30 -740 -39 -965 -50
-1340 -11 -374 -34 -914 -50 -1185 -5 -93 -14 -330 -20 -525 -12 -426 -24
-684 -51 -1130 -36 -607 -39 -653 -43 -835 -4 -144 -3 -163 4 -95 23 210 42
440 65 760 14 190 38 503 55 695 16 193 34 422 40 510 6 88 19 239 30 335 29
267 39 376 55 615 16 235 27 356 50 555 8 69 24 251 35 405 11 154 31 377 45
495 13 118 34 343 45 500 12 157 27 332 35 390 13 93 44 440 61 665 3 44 12
132 19 195 16 130 50 479 60 615 3 50 19 209 36 355 16 146 36 353 44 460 8
107 17 206 20 220 2 14 11 94 20 179 9 85 18 158 21 162 3 5 -92 9 -210 9
-119 0 -216 -1 -216 -2z"/>
<path d="M15183 28643 c-113 -4 -112 0 -49 -157 25 -61 65 -163 89 -226 25
-63 71 -180 102 -260 31 -80 72 -185 92 -235 19 -49 54 -139 78 -200 24 -60
59 -152 79 -202 20 -51 51 -132 70 -180 19 -49 62 -160 96 -248 33 -88 66
-171 71 -185 6 -14 63 -160 126 -325 146 -382 195 -507 243 -625 90 -219 229
-587 525 -1385 152 -409 162 -435 171 -435 3 0 3 8 -1 18 -32 77 -404 1188
-715 2132 -196 596 -304 922 -326 985 -33 93 -52 165 -45 165 9 0 61 -117 61
-136 0 -8 5 -12 10 -9 6 3 10 -4 10 -17 0 -33 23 -104 58 -179 16 -35 39 -98
52 -139 12 -41 33 -99 46 -128 13 -29 24 -57 24 -62 0 -28 79 -234 87 -226 2
2 -10 41 -27 87 -17 46 -37 107 -45 134 -7 28 -25 82 -39 120 -14 39 -100 291
-190 560 -91 270 -194 576 -229 680 -36 105 -100 298 -143 430 -42 132 -82
243 -88 247 -6 4 -31 7 -56 6 -25 -1 -87 -4 -137 -5z"/>
<path d="M29403 28458 c-6 -22 -629 -1268 -913 -1823 -133 -260 -315 -618
-635 -1250 -103 -203 -251 -491 -328 -640 -77 -148 -227 -443 -334 -655 -290
-574 -462 -909 -598 -1165 -67 -126 -159 -302 -205 -390 -45 -88 -99 -191
-120 -230 -21 -38 -66 -124 -100 -190 -35 -66 -100 -190 -145 -275 -143 -270
-275 -528 -275 -537 0 -10 24 29 74 122 62 112 98 179 201 370 54 99 110 203
125 230 15 28 107 196 205 375 364 667 504 919 987 1774 92 164 168 300 168
302 0 3 11 21 23 42 13 20 46 78 74 127 66 118 386 687 526 935 60 107 139
247 174 310 36 63 80 140 97 170 18 30 50 87 71 125 21 39 123 221 228 405
104 184 220 389 257 455 294 521 645 1135 661 1157 10 15 19 35 19 45 0 17
-208 233 -225 233 -4 0 -9 -10 -12 -22z"/>
<path d="M27603 28353 c-24 -69 -140 -361 -283 -718 -93 -231 -218 -544 -278
-695 -114 -285 -325 -811 -559 -1390 -75 -184 -194 -479 -265 -655 -71 -176
-135 -333 -142 -350 -8 -16 -23 -52 -34 -80 -33 -87 -197 -490 -307 -760 -59
-143 -135 -330 -170 -415 -35 -85 -91 -222 -125 -305 -34 -82 -135 -332 -225
-555 -206 -513 -288 -714 -330 -815 -18 -44 -61 -145 -94 -225 -33 -80 -97
-233 -142 -340 -45 -107 -111 -265 -146 -350 -35 -85 -80 -191 -98 -235 -66
-158 -114 -273 -204 -490 -51 -121 -98 -233 -106 -250 -7 -16 -66 -156 -130
-310 -65 -154 -142 -338 -172 -410 -59 -138 -116 -276 -163 -390 -16 -38 -63
-148 -104 -244 -73 -170 -92 -223 -49 -138 26 51 143 315 143 323 0 3 8 24 19
47 10 23 33 76 51 117 17 41 41 95 52 120 12 25 31 70 43 100 13 30 69 161
125 290 56 129 133 309 172 400 38 91 78 183 88 205 10 22 48 110 85 195 36
85 73 171 82 190 8 19 53 123 99 230 47 107 89 204 94 215 15 35 77 176 123
285 25 58 71 164 102 235 32 72 70 159 85 195 15 36 42 97 60 135 18 39 51
115 75 170 24 55 80 181 125 280 92 204 508 1138 655 1470 53 121 114 258 135
305 73 161 343 765 400 895 31 72 81 182 109 245 69 151 104 230 256 570 70
157 136 303 145 325 85 187 235 521 300 665 21 47 102 227 180 400 79 173 160
356 182 405 22 50 50 113 62 140 273 593 436 960 432 972 -4 10 -46 13 -176
13 -153 0 -171 -2 -177 -17z"/>
<path d="M24851 28023 c-6 -27 -18 -91 -26 -143 -9 -52 -27 -147 -41 -210 -13
-63 -58 -284 -99 -490 -141 -704 -234 -1165 -275 -1365 -124 -599 -164 -795
-191 -940 -16 -88 -34 -176 -39 -196 -6 -20 -21 -95 -35 -165 -26 -141 -81
-403 -175 -844 -34 -157 -76 -358 -95 -447 -19 -89 -41 -188 -49 -220 -8 -32
-24 -107 -35 -168 -12 -60 -28 -137 -36 -170 -37 -152 -155 -731 -154 -755 0
-15 42 152 103 420 34 144 70 299 226 960 45 190 95 404 111 475 16 72 41 173
54 225 13 52 47 192 76 310 28 118 64 262 79 320 15 58 65 256 110 440 45 184
126 517 181 740 55 223 124 506 154 630 31 124 69 277 85 340 17 63 82 324
145 580 64 256 129 517 145 580 17 63 28 121 25 128 -3 8 -36 12 -119 12
l-114 0 -11 -47z"/>
<path d="M22791 27948 c-6 -62 -21 -207 -31 -323 -11 -115 -33 -322 -49 -460
-17 -137 -35 -311 -41 -385 -6 -74 -24 -241 -40 -370 -16 -129 -36 -315 -45
-413 -9 -98 -25 -247 -36 -330 -35 -269 -38 -299 -54 -490 -9 -104 -24 -255
-35 -335 -11 -81 -27 -226 -35 -322 -9 -96 -25 -245 -36 -330 -11 -85 -36
-288 -54 -450 -19 -162 -47 -405 -64 -540 -16 -135 -44 -360 -61 -500 -17
-140 -35 -280 -40 -310 -5 -30 -8 -82 -8 -115 1 -33 3 -46 5 -30 2 17 17 111
33 210 16 99 41 266 54 370 14 105 37 271 51 370 14 99 37 259 51 355 14 96
36 263 50 370 13 107 33 240 44 295 10 55 30 191 44 302 14 111 33 234 41 275
9 40 29 170 46 288 16 118 36 250 44 294 8 43 28 177 45 297 16 121 39 270 50
332 10 61 24 150 30 197 6 47 28 200 50 340 22 140 48 318 60 395 11 77 28
192 39 255 11 63 27 171 36 240 9 69 27 184 40 255 14 72 29 171 35 220 6 50
13 105 16 123 l6 32 -114 0 -114 0 -13 -112z"/>
<path d="M18637 27863 c-13 -12 -7 -74 29 -280 19 -115 44 -264 54 -333 10
-69 33 -210 50 -315 69 -423 109 -673 115 -720 4 -27 22 -135 40 -240 18 -104
36 -215 40 -245 9 -84 44 -291 54 -325 16 -52 12 -3 -9 110 -11 60 -27 173
-35 252 -8 78 -28 223 -44 320 -16 98 -37 243 -46 323 -9 80 -24 197 -35 260
-10 63 -26 169 -35 235 -8 66 -36 262 -60 435 -24 173 -49 358 -56 410 -6 52
-16 101 -22 108 -10 13 -30 16 -40 5z"/>
<path d="M20806 27233 c-15 -448 -27 -966 -31 -1333 l-4 -385 14 305 c7 168
18 370 24 450 13 171 37 668 47 963 l7 207 -26 0 -25 0 -6 -207z"/>
<path d="M25986 27123 c-26 -82 -63 -193 -81 -248 -103 -308 -149 -472 -99
-359 17 41 97 255 144 389 15 44 49 136 74 204 51 138 55 161 28 161 -15 0
-28 -29 -66 -147z"/>
<path d="M14488 26829 c-6 -4 157 -360 402 -880 227 -481 453 -958 501 -1062
49 -103 89 -189 89 -191 0 -2 29 -64 64 -138 35 -73 114 -241 176 -373 134
-287 431 -914 525 -1110 84 -175 149 -313 185 -390 15 -33 80 -172 145 -310
98 -209 248 -534 375 -810 15 -33 70 -152 122 -265 53 -113 107 -230 120 -260
14 -30 56 -120 93 -200 37 -80 130 -282 207 -450 144 -313 175 -380 235 -510
19 -41 42 -90 50 -109 8 -18 16 -31 19 -29 3 4 -233 548 -334 768 -19 41 -52
116 -232 525 -32 72 -72 162 -90 200 -17 39 -61 138 -97 220 -36 83 -83 188
-104 233 -22 46 -39 86 -39 87 0 3 -198 452 -335 760 -7 17 -36 84 -65 150
-29 66 -69 158 -90 205 -21 47 -75 169 -119 273 -250 579 -304 702 -577 1322
-31 72 -101 231 -154 355 -115 263 -315 722 -334 765 -8 17 -46 104 -86 195
-40 91 -80 183 -90 206 -11 22 -28 63 -38 90 -11 27 -31 74 -46 104 -14 30
-41 91 -59 135 -19 44 -68 159 -109 255 -41 96 -78 185 -82 197 -4 11 -13 27
-21 33 -16 13 -189 20 -207 9z"/>
<path d="M7270 26358 c0 -6 71 -78 158 -161 86 -84 342 -334 567 -557 226
-223 558 -551 740 -730 1195 -1178 5023 -4996 5854 -5840 798 -810 1206 -1222
1298 -1310 l68 -65 -55 60 c-30 33 -107 113 -170 178 -63 66 -120 124 -125
131 -49 55 -534 560 -885 921 -178 183 -336 347 -514 535 -94 99 -191 200
-543 563 -82 83 -227 235 -323 337 -96 102 -229 241 -295 310 -66 69 -230 242
-365 385 -135 143 -348 368 -475 500 -126 132 -306 321 -400 420 -93 99 -210
223 -261 275 -50 52 -212 223 -360 380 -147 157 -354 375 -459 485 -105 110
-303 319 -440 465 -440 466 -772 818 -1019 1080 -274 290 -495 525 -594 632
-37 40 -110 118 -162 173 -110 116 -469 498 -649 691 -82 89 -134 137 -156
144 -40 13 -435 11 -435 -2z"/>
<path d="M30222 26201 c-53 -83 -133 -206 -177 -275 -44 -69 -123 -192 -175
-273 -127 -197 -143 -223 -138 -229 3 -2 30 33 61 78 31 46 134 193 228 328
286 407 329 472 329 497 0 51 -34 17 -128 -126z"/>
<path d="M31737 26223 c-17 -25 -121 -164 -231 -307 -109 -144 -263 -346 -342
-451 -79 -104 -161 -212 -183 -240 -21 -27 -152 -198 -290 -380 -139 -181
-290 -379 -336 -440 -47 -60 -193 -252 -325 -425 -132 -173 -265 -346 -295
-385 -54 -69 -143 -185 -280 -365 -38 -51 -120 -156 -181 -233 -60 -78 -148
-191 -194 -252 -197 -259 -381 -502 -503 -665 -72 -96 -165 -218 -207 -271
-90 -115 -303 -391 -495 -639 -114 -147 -234 -302 -354 -455 -125 -158 -292
-373 -461 -592 -63 -81 -126 -162 -140 -179 -14 -16 -36 -45 -50 -64 -23 -31
-125 -160 -245 -312 -27 -34 -79 -101 -115 -148 -36 -47 -108 -139 -161 -205
-52 -66 -126 -160 -164 -210 -38 -49 -103 -133 -145 -185 -42 -52 -112 -143
-157 -201 -44 -58 -104 -136 -132 -172 -29 -37 -51 -67 -48 -67 3 0 29 30 58
68 30 37 56 69 59 72 3 3 21 25 40 50 19 25 43 54 52 65 9 11 47 59 85 107
117 149 372 470 653 823 285 357 551 691 660 830 66 84 315 394 379 474 20 24
65 81 101 126 57 72 250 313 519 645 47 58 132 164 190 235 98 122 201 247
364 443 38 46 95 115 127 155 32 40 129 160 215 267 150 186 286 354 537 665
62 77 193 238 291 358 164 201 320 392 652 801 72 88 200 246 285 351 85 106
241 297 345 425 105 127 251 307 325 399 74 92 164 200 198 241 73 86 84 107
69 135 -23 44 -112 155 -124 155 -8 0 -28 -21 -46 -47z m-2258 -3072 c-35 -44
-80 -101 -99 -127 -19 -26 -53 -68 -75 -93 -23 -25 -48 -58 -57 -72 -9 -15
-72 -95 -140 -178 -68 -84 -141 -176 -163 -206 -22 -29 -49 -59 -59 -65 -11
-7 -5 5 15 30 19 23 48 61 65 85 17 24 51 70 77 102 79 97 155 194 214 272 30
41 72 92 92 115 21 23 55 66 76 96 48 67 107 132 113 125 3 -2 -24 -40 -59
-84z"/>
<path d="M10290 25387 c0 -5 13 -23 29 -40 30 -33 61 -69 321 -377 85 -101
184 -218 220 -259 36 -42 155 -182 265 -311 110 -129 233 -275 275 -324 41
-49 122 -144 180 -211 58 -67 184 -216 280 -331 96 -115 193 -229 216 -254 35
-39 224 -262 544 -645 47 -56 119 -142 160 -191 120 -143 588 -692 660 -774
63 -72 361 -426 465 -554 28 -34 162 -196 300 -361 219 -264 703 -846 984
-1185 53 -63 98 -117 101 -120 3 -3 69 -81 145 -175 154 -187 151 -183 259
-308 42 -49 88 -104 102 -123 15 -19 31 -34 36 -34 5 0 -25 42 -68 93 -42 50
-127 155 -189 232 -61 77 -138 172 -169 210 -31 39 -62 77 -69 85 -7 8 -93
115 -192 238 -99 123 -225 279 -280 347 -55 68 -199 246 -320 396 -121 150
-254 314 -295 364 -41 51 -115 143 -165 204 -49 62 -115 143 -146 179 -61 73
-564 701 -724 906 -92 117 -180 227 -470 591 -60 75 -142 176 -181 224 -39 47
-122 152 -185 232 -63 80 -314 397 -559 705 -245 307 -502 631 -573 719 -70
88 -147 185 -170 215 -24 30 -122 154 -218 275 -96 121 -197 250 -224 287 -32
43 -61 71 -80 78 -37 12 -265 10 -265 -3z"/>
<path d="M31772 24817 c-81 -100 -177 -217 -213 -261 -35 -43 -98 -120 -139
-171 -259 -318 -686 -837 -1334 -1619 -710 -859 -804 -972 -914 -1101 -52 -60
-102 -119 -111 -130 -44 -55 -107 -131 -118 -143 -7 -7 -29 -34 -50 -60 -21
-26 -40 -49 -43 -52 -3 -3 -55 -66 -115 -140 -147 -182 -292 -356 -386 -465
-75 -87 -241 -282 -519 -610 -74 -88 -203 -238 -286 -335 -83 -97 -154 -183
-159 -191 -8 -14 -1 -8 104 106 78 84 331 366 516 575 84 95 577 637 702 772
128 137 372 403 517 563 50 55 147 160 216 235 130 139 401 435 569 620 53 58
130 141 172 185 42 44 190 204 329 355 139 151 287 311 329 355 42 44 119 128
171 185 52 58 165 179 250 270 188 200 155 165 280 301 124 135 190 205 413
440 92 97 167 184 167 193 0 9 -33 67 -74 129 -41 62 -80 124 -87 139 -6 15
-18 29 -25 32 -8 3 -69 -63 -162 -177z"/>
<path d="M14510 24585 c0 -7 108 -207 290 -535 53 -96 143 -260 200 -365 112
-207 263 -480 403 -730 49 -88 160 -293 247 -455 86 -162 173 -324 192 -360
43 -77 165 -308 211 -397 17 -35 35 -63 39 -63 5 0 5 8 0 18 -5 9 -85 172
-177 362 -92 190 -224 460 -293 600 -68 140 -150 311 -182 380 -101 219 -116
251 -210 445 -99 205 -198 412 -390 820 -67 143 -127 266 -133 273 -9 12 -197
19 -197 7z"/>
<path d="M4628 23608 c1 -183 2 -339 2 -345 0 -15 -21 -1 560 -368 250 -158
478 -302 505 -320 28 -18 113 -72 190 -120 230 -145 1093 -695 1490 -950 204
-131 437 -280 520 -333 143 -92 569 -366 820 -528 66 -43 253 -164 415 -268
162 -105 364 -235 447 -291 84 -55 244 -158 355 -230 111 -71 330 -213 485
-315 156 -102 331 -216 390 -255 100 -64 287 -187 868 -570 127 -83 311 -203
410 -265 170 -108 516 -338 1425 -948 913 -613 1081 -724 1086 -720 2 3 -154
115 -348 250 -194 135 -409 285 -478 333 -153 109 -280 197 -385 269 -44 30
-111 77 -150 104 -808 564 -1044 730 -1170 824 -44 33 -213 154 -375 269 -368
260 -935 664 -1400 998 -371 266 -459 329 -519 372 -80 57 -435 312 -576 414
-82 60 -204 147 -269 194 -146 106 -172 125 -387 281 -95 69 -197 143 -228
164 -31 22 -96 70 -146 106 -49 37 -207 152 -350 255 -271 196 -433 314 -670
488 -77 57 -216 159 -310 227 -337 246 -699 512 -914 671 -86 63 -241 178
-346 255 -104 77 -257 189 -338 249 -418 309 -593 435 -602 435 -7 0 -9 -112
-7 -332z"/>
<path d="M33285 23578 c-258 -240 -382 -355 -440 -408 -33 -30 -96 -89 -140
-130 -98 -93 -288 -269 -590 -551 -126 -117 -259 -241 -295 -274 -36 -34 -94
-88 -130 -120 -36 -33 -96 -89 -135 -125 -38 -36 -124 -115 -190 -175 -186
-171 -393 -363 -470 -436 -83 -79 -162 -152 -350 -324 -77 -70 -178 -165 -225
-209 -47 -45 -143 -135 -215 -201 -71 -65 -164 -150 -205 -189 -42 -39 -118
-110 -170 -157 -52 -47 -181 -164 -286 -260 -105 -96 -289 -264 -410 -373
-120 -110 -253 -231 -294 -270 -41 -39 -120 -112 -175 -161 -55 -50 -129 -117
-165 -151 -36 -33 -112 -102 -170 -154 -116 -104 -286 -270 -205 -200 207 177
327 281 370 321 28 26 111 100 185 165 74 65 189 166 255 225 66 58 163 144
216 190 53 46 141 125 196 174 55 50 223 198 373 330 151 132 302 265 335 295
33 30 141 125 239 210 412 357 755 654 1030 895 132 116 332 291 445 389 113
98 285 248 381 332 96 84 236 205 310 269 74 65 198 172 275 240 151 132 370
321 646 560 95 83 188 164 207 180 l34 31 -47 87 c-26 48 -52 87 -58 87 -7 0
-66 -50 -132 -112z"/>
<path d="M29665 21468 c-10 -13 -91 -101 -179 -197 -89 -95 -190 -205 -225
-245 -67 -74 -132 -144 -266 -286 -221 -234 -454 -493 -433 -484 7 4 46 43 87
88 41 44 190 200 330 346 457 473 726 762 729 781 5 26 -19 24 -43 -3z"/>
<path d="M5600 20599 c0 -137 4 -248 10 -259 5 -10 20 -20 33 -24 12 -3 128
-57 257 -119 129 -63 354 -172 500 -242 146 -70 301 -146 345 -167 44 -22 168
-82 275 -133 107 -51 341 -165 520 -253 179 -87 417 -204 530 -259 113 -56
340 -167 505 -248 165 -81 453 -223 640 -314 759 -373 1386 -683 2055 -1017
388 -193 874 -435 1080 -538 206 -102 499 -249 650 -327 729 -373 1226 -628
1330 -682 224 -116 455 -234 473 -240 34 -13 16 3 -30 26 -54 27 -171 89 -283
152 -41 23 -95 52 -120 64 -97 49 -303 158 -475 251 -223 120 -591 318 -705
378 -110 58 -590 316 -655 352 -27 15 -122 67 -210 115 -88 48 -284 156 -435
240 -151 83 -315 173 -365 200 -49 27 -133 72 -185 100 -52 29 -185 102 -295
162 -200 110 -477 263 -720 398 -71 40 -157 87 -190 105 -63 34 -80 44 -240
132 -55 31 -192 106 -305 168 -113 62 -315 175 -450 250 -135 75 -330 184
-435 242 -104 58 -365 204 -580 323 -389 218 -459 257 -630 352 -218 122 -242
136 -750 423 -148 84 -360 203 -470 265 -110 61 -285 160 -390 220 -104 59
-205 116 -223 126 -64 37 -62 44 -62 -222z"/>
<path d="M33245 20304 c-440 -294 -891 -594 -1003 -667 -210 -137 -686 -453
-1187 -788 -160 -107 -357 -237 -438 -289 -81 -52 -209 -135 -285 -185 -268
-175 -337 -220 -347 -225 -5 -3 -50 -32 -100 -64 -49 -32 -191 -124 -315 -204
-124 -80 -286 -185 -360 -233 -74 -48 -209 -135 -300 -194 -91 -58 -266 -172
-390 -252 -124 -80 -229 -150 -235 -156 -13 -13 60 29 100 58 17 12 35 24 40
26 12 4 98 58 345 215 228 144 395 250 490 309 44 28 167 105 272 171 505 318
588 371 658 414 351 219 490 305 520 325 73 48 217 136 590 360 332 200 500
302 945 578 104 64 396 243 605 370 91 55 181 110 200 122 19 13 105 65 190
117 795 484 880 538 887 554 2 7 -6 48 -19 91 -19 61 -28 78 -43 79 -11 1
-370 -232 -820 -532z m-865 -659 c-7 -8 -19 -15 -26 -15 -8 0 -14 -4 -14 -10
0 -5 -6 -10 -14 -10 -8 0 -16 -3 -18 -7 -4 -10 -65 -53 -73 -53 -4 0 -27 -15
-53 -32 -26 -18 -54 -37 -64 -43 -46 -28 -133 -82 -153 -95 -68 -46 -107 -70
-287 -183 -51 -32 -121 -76 -156 -97 -34 -22 -66 -40 -70 -40 -11 0 52 49 64
50 5 0 19 8 30 18 32 28 82 62 92 62 5 0 15 7 22 15 7 8 78 54 159 102 80 48
165 101 187 118 38 28 94 61 112 67 4 1 12 6 17 10 6 5 21 17 34 28 13 11 30
20 38 20 7 0 13 5 13 10 0 6 6 10 14 10 8 0 22 7 30 16 9 8 16 12 16 7 0 -4 4
-2 8 4 6 10 86 59 101 62 2 1 -2 -6 -9 -14z"/>
<path d="M34916 19835 c-43 -25 -80 -45 -82 -45 -2 0 -63 -33 -136 -73 -73
-41 -182 -100 -243 -132 -60 -32 -211 -113 -335 -180 -124 -67 -313 -170 -420
-227 -404 -218 -445 -240 -455 -250 -11 -10 23 0 40 12 6 4 91 49 190 100 99
51 207 107 240 125 64 35 175 93 370 195 66 34 264 138 440 231 176 92 358
187 405 212 48 24 86 51 88 60 5 26 -17 20 -102 -28z"/>
<path d="M4630 17678 c0 -57 4 -108 8 -114 4 -6 77 -32 162 -57 242 -73 404
-123 545 -166 72 -21 200 -60 285 -86 85 -26 211 -64 280 -85 69 -21 217 -66
330 -100 113 -34 246 -74 295 -90 50 -16 160 -49 245 -75 85 -26 202 -62 260
-80 172 -54 493 -153 865 -265 94 -28 220 -67 280 -85 61 -19 187 -57 280 -85
94 -28 229 -69 300 -91 457 -141 644 -199 785 -244 99 -32 216 -68 595 -187
88 -27 207 -65 265 -83 58 -18 173 -54 255 -80 83 -25 191 -59 240 -75 342
-108 487 -153 605 -190 74 -23 175 -55 224 -71 48 -17 93 -28 99 -26 5 1 -212
77 -484 167 -272 89 -930 309 -1464 487 -533 178 -1022 342 -1085 363 -63 21
-268 91 -455 155 -347 119 -913 312 -1540 525 -354 120 -662 225 -1080 368
-376 130 -426 147 -764 262 -178 60 -325 110 -327 110 -2 0 -4 -46 -4 -102z"/>
<path d="M33920 17614 c-103 -43 -248 -104 -525 -222 -276 -118 -370 -157
-550 -232 -82 -34 -163 -67 -180 -75 -16 -7 -97 -41 -180 -75 -201 -82 -444
-187 -585 -250 -63 -29 -140 -63 -170 -75 -30 -13 -111 -46 -180 -75 -69 -29
-183 -76 -255 -105 -71 -29 -258 -105 -415 -170 -157 -64 -377 -154 -490 -200
-113 -46 -279 -113 -370 -150 -91 -37 -202 -82 -247 -100 -83 -34 -124 -54
-111 -55 6 0 98 35 433 165 61 24 200 77 310 119 110 43 252 97 315 122 290
114 386 151 615 239 153 59 448 168 635 235 182 66 417 153 775 287 154 58
327 122 385 143 58 21 204 75 325 120 121 45 256 95 300 110 44 15 120 44 169
64 50 20 95 36 102 36 7 0 16 4 19 10 9 15 -18 170 -30 170 -5 -1 -48 -17 -95
-36z"/>
<path d="M35738 16305 c-3 -3 -72 -24 -154 -46 -82 -21 -225 -60 -319 -85 -93
-25 -217 -59 -275 -74 -172 -46 -481 -130 -535 -145 -27 -8 -106 -30 -175 -49
-69 -19 -246 -69 -395 -111 -148 -42 -324 -91 -390 -110 -174 -49 -659 -179
-1395 -375 -355 -94 -699 -186 -765 -204 -66 -19 -235 -64 -375 -101 -140 -37
-381 -100 -535 -141 -460 -122 -524 -139 -920 -244 -567 -149 -655 -173 -651
-177 2 -2 156 35 342 82 345 88 399 102 954 244 173 45 484 124 690 177 206
52 454 116 550 140 299 77 1859 475 1915 488 11 3 103 25 205 50 102 25 365
88 585 141 220 53 661 162 980 242 319 80 607 152 640 160 33 8 63 17 67 21 4
4 4 33 1 65 -5 45 -9 57 -23 57 -9 0 -19 -2 -22 -5z"/>
<path d="M6060 16035 l0 -104 38 -6 c20 -4 89 -18 152 -32 63 -14 183 -40 265
-57 203 -44 411 -91 585 -132 80 -18 183 -41 230 -50 47 -8 117 -24 156 -35
39 -11 115 -28 170 -39 54 -10 167 -35 249 -53 83 -19 256 -58 385 -87 129
-28 280 -62 335 -76 55 -13 174 -40 265 -60 91 -20 242 -53 335 -74 94 -21
224 -49 290 -64 66 -15 176 -40 245 -56 69 -17 175 -41 235 -54 152 -33 406
-91 555 -126 304 -72 675 -158 935 -215 83 -18 206 -47 275 -64 69 -18 141
-34 160 -36 19 -3 100 -20 180 -39 80 -20 222 -53 315 -75 94 -22 247 -58 340
-80 94 -22 222 -51 285 -65 63 -14 131 -30 150 -36 19 -5 39 -10 45 -9 23 1
-79 32 -210 63 -154 37 -329 80 -505 125 -168 43 -1041 262 -1360 341 -151 37
-383 96 -515 130 -132 34 -266 68 -297 76 -32 8 -86 21 -120 29 -83 20 -827
210 -1373 350 -121 31 -332 85 -470 120 -137 35 -290 74 -340 88 -49 14 -107
28 -129 32 -21 3 -77 18 -125 32 -47 14 -129 36 -181 48 -52 12 -358 91 -680
175 -322 84 -628 163 -680 175 -52 12 -113 27 -135 34 -22 6 -43 11 -47 11 -5
0 -8 -47 -8 -105z"/>
<path d="M36285 14825 c-5 -3 -80 -15 -165 -29 -85 -14 -218 -36 -295 -50
-383 -70 -604 -109 -1150 -200 -110 -19 -261 -46 -335 -59 -284 -53 -639 -117
-735 -132 -55 -9 -188 -31 -295 -50 -107 -18 -312 -52 -455 -75 -143 -23 -476
-77 -740 -120 -264 -43 -529 -86 -590 -95 -148 -21 -363 -67 -280 -59 33 3
107 14 165 24 58 11 195 31 305 45 110 14 256 34 325 45 69 11 193 29 275 40
83 11 254 35 380 55 320 48 625 91 855 120 107 14 263 34 345 45 83 11 193 25
245 30 141 15 322 38 430 55 52 8 208 28 345 45 138 17 288 37 335 45 47 8
168 24 270 35 102 11 260 32 352 46 91 14 235 33 320 42 l153 17 -1 90 c-1 87
-2 90 -25 92 -13 1 -28 0 -34 -2z"/>
<path d="M4630 13771 c0 -44 4 -82 9 -86 5 -3 121 -12 258 -20 136 -9 291 -20
343 -25 143 -15 463 -38 759 -55 145 -8 357 -24 471 -35 115 -11 320 -26 456
-35 452 -27 577 -36 719 -51 153 -16 481 -39 695 -49 140 -6 193 -11 545 -44
116 -12 331 -28 478 -36 147 -9 386 -27 530 -40 144 -13 375 -31 512 -40 138
-9 408 -29 600 -46 364 -31 494 -41 780 -59 94 -6 240 -18 325 -26 353 -33
475 -43 675 -54 116 -7 273 -18 350 -26 351 -36 440 -44 585 -47 85 -3 130 -3
100 -1 -74 5 -318 30 -520 54 -91 11 -231 24 -312 30 -376 26 -451 32 -563 45
-160 19 -413 42 -610 55 -88 6 -200 16 -250 21 -334 35 -486 50 -680 64 -121
9 -296 25 -390 35 -93 11 -264 26 -380 35 -244 18 -346 27 -585 54 -96 11
-278 27 -405 36 -126 9 -302 24 -390 35 -214 25 -342 37 -580 55 -110 9 -301
26 -425 40 -124 14 -313 32 -420 40 -197 16 -243 20 -560 55 -96 11 -292 29
-435 40 -143 12 -311 28 -374 36 -62 8 -269 28 -460 44 -190 17 -380 34 -421
40 -116 16 -358 40 -396 40 l-34 0 0 -79z"/>
<path d="M35770 13143 c-25 -2 -135 -10 -245 -18 -229 -17 -766 -51 -965 -60
-74 -4 -283 -18 -465 -31 -181 -13 -454 -31 -605 -39 -390 -21 -728 -43 -1000
-65 -129 -11 -415 -29 -635 -40 -220 -11 -449 -22 -510 -25 -60 -4 -200 -13
-310 -20 -110 -8 -324 -19 -475 -25 -151 -5 -306 -12 -345 -15 -38 -3 -178
-10 -310 -15 -132 -5 -348 -17 -480 -25 -132 -9 -274 -17 -315 -19 -41 -2 47
-2 195 0 279 3 934 22 1650 49 660 24 682 25 1320 30 950 9 2129 24 2250 30
61 3 317 10 570 15 412 9 828 21 831 24 1 0 4 58 5 129 l4 127 -60 -2 c-33 -1
-80 -3 -105 -5z"/>
<path d="M13635 11023 c-16 -2 -106 -20 -200 -38 -93 -19 -240 -46 -325 -60
-85 -14 -171 -30 -190 -35 -19 -5 -118 -23 -220 -40 -102 -17 -201 -35 -220
-40 -19 -6 -102 -21 -185 -35 -138 -23 -258 -46 -750 -140 -99 -20 -212 -39
-251 -45 -38 -5 -135 -23 -215 -39 -79 -17 -175 -35 -214 -41 -38 -6 -140 -24
-225 -40 -172 -34 -449 -85 -700 -130 -91 -16 -248 -45 -350 -64 -524 -99
-621 -117 -685 -126 -38 -6 -123 -22 -190 -36 -66 -13 -190 -36 -275 -50 -85
-14 -193 -34 -240 -44 -47 -11 -157 -31 -245 -45 -87 -14 -184 -32 -215 -39
-30 -8 -116 -24 -190 -36 -74 -12 -191 -32 -260 -45 -69 -14 -204 -39 -300
-55 -601 -106 -914 -161 -1120 -200 -85 -16 -198 -36 -250 -45 -98 -16 -465
-84 -487 -91 -9 -2 -13 -24 -13 -65 l0 -61 28 6 c15 3 91 17 170 31 79 14 178
34 221 45 42 10 140 30 218 44 77 14 167 31 199 39 32 9 102 23 154 32 52 10
127 24 165 32 39 7 138 27 220 44 83 17 236 48 340 69 339 70 548 112 660 132
61 10 169 32 240 47 72 16 177 37 235 46 58 9 139 25 180 35 41 11 129 28 195
40 66 11 183 34 260 50 77 16 259 52 405 80 146 28 342 66 435 85 94 18 278
54 410 80 264 51 556 108 795 155 85 17 229 44 320 61 91 16 201 38 245 49 44
11 138 29 208 40 71 11 175 31 233 45 58 14 153 32 212 40 59 9 141 25 183 35
42 11 143 31 225 45 82 14 196 36 254 49 58 13 164 34 235 46 72 12 167 30
212 41 46 10 149 30 230 45 82 14 186 34 233 46 47 11 130 28 185 38 87 16 94
25 10 13z"/>
<path d="M29230 10710 c63 -15 174 -39 245 -53 136 -28 349 -72 750 -157 349
-74 590 -125 803 -170 103 -21 252 -53 332 -70 350 -75 679 -145 850 -181 534
-112 1113 -239 1430 -314 129 -30 302 -69 670 -150 63 -14 187 -41 275 -60
217 -46 496 -108 635 -140 131 -30 271 -53 288 -47 7 2 12 14 12 26 0 12 7 32
16 44 31 45 53 39 -531 151 -304 58 -705 136 -890 171 -88 17 -232 44 -320 60
-283 50 -650 119 -1040 195 -459 90 -1243 245 -1385 275 -80 16 -192 39 -250
49 -58 11 -316 63 -575 116 -258 53 -546 111 -640 129 -265 52 -519 104 -647
131 -155 33 -172 30 -28 -5z"/>
<path d="M15725 10384 c-16 -9 -124 -53 -240 -99 -115 -46 -415 -165 -665
-265 -536 -215 -645 -258 -935 -369 -38 -15 -97 -39 -130 -54 -33 -14 -181
-73 -330 -132 -148 -58 -290 -114 -315 -125 -25 -11 -367 -147 -760 -304 -682
-271 -859 -341 -1525 -603 -159 -63 -310 -123 -335 -133 -25 -11 -121 -49
-215 -85 -93 -36 -179 -70 -190 -75 -11 -5 -103 -42 -205 -81 -102 -39 -246
-95 -320 -124 -170 -67 -516 -203 -725 -285 -88 -35 -266 -105 -395 -155 -247
-98 -400 -157 -590 -232 -200 -78 -265 -106 -277 -122 -7 -8 -13 -41 -13 -73
0 -63 13 -73 55 -45 11 7 43 22 70 32 28 10 78 31 113 47 34 15 65 28 69 28 3
0 47 18 97 39 50 22 141 60 201 85 61 25 290 120 510 212 220 92 436 181 480
199 44 18 96 39 115 48 19 9 89 38 155 66 330 136 1074 444 1100 456 17 7 59
25 95 39 36 13 115 46 175 71 112 48 279 117 555 230 85 35 250 102 365 150
116 47 314 128 440 180 127 51 275 112 330 135 55 23 143 59 195 80 52 21 136
54 185 75 187 77 313 128 405 165 52 21 120 49 150 63 30 14 91 39 135 57 352
141 390 157 460 187 33 14 87 36 120 49 65 25 223 90 435 179 74 31 163 67
198 80 34 13 88 35 120 49 31 14 217 90 412 170 390 159 470 193 470 201 0 9
-14 5 -45 -11z"/>
<path d="M13830 10058 c-184 -60 -351 -115 -370 -123 -19 -7 -219 -74 -445
-148 -493 -162 -1848 -609 -2505 -827 -261 -86 -608 -201 -770 -255 -162 -53
-315 -103 -340 -110 -25 -8 -83 -27 -130 -43 -47 -17 -267 -89 -490 -162 -223
-72 -450 -146 -505 -165 -55 -18 -181 -59 -280 -91 -99 -31 -288 -92 -420
-135 -404 -133 -470 -154 -780 -254 -165 -53 -345 -112 -400 -130 -55 -19
-235 -77 -400 -130 -165 -53 -342 -112 -394 -131 -52 -19 -102 -34 -111 -34
-24 0 -30 -20 -30 -91 0 -55 2 -59 23 -59 13 0 27 4 33 9 5 5 115 45 244 89
129 44 307 106 395 137 88 31 198 70 245 85 47 16 157 54 245 85 88 31 205 72
260 90 55 19 156 54 225 78 69 25 184 65 255 90 218 75 636 221 900 312 138
48 302 105 365 127 63 22 167 57 230 78 63 21 228 77 365 125 293 101 1002
345 1125 385 47 16 150 51 230 78 351 121 936 320 1170 399 140 47 263 90 273
95 9 5 59 22 110 38 50 15 164 54 252 85 88 31 205 71 260 90 55 18 280 94
500 170 220 75 519 176 665 225 146 49 288 98 315 109 113 45 1 13 -315 -91z"/>
<path d="M29155 10058 c33 -10 128 -39 210 -63 83 -23 321 -93 530 -154 358
-106 583 -171 825 -242 58 -17 155 -46 215 -64 61 -18 182 -54 270 -80 599
-176 1249 -372 1555 -470 58 -18 175 -55 260 -80 85 -26 211 -64 280 -85 69
-21 262 -79 430 -130 168 -50 341 -103 385 -117 44 -14 127 -38 184 -55 121
-34 126 -32 137 49 6 51 6 52 -22 58 -16 4 -83 22 -149 40 -233 63 -422 114
-570 154 -296 80 -452 123 -595 162 -80 21 -343 91 -585 155 -665 176 -732
194 -1030 278 -197 56 -427 121 -645 181 -338 94 -478 133 -625 175 -77 22
-275 78 -440 124 -165 46 -382 107 -482 135 -184 52 -247 65 -138 29z"/>
<path d="M16618 8904 c-45 -36 -107 -84 -136 -107 -79 -62 -470 -373 -522
-415 -24 -21 -114 -92 -200 -160 -85 -68 -238 -190 -340 -272 -234 -188 -994
-794 -1211 -964 -201 -159 -402 -319 -409 -326 -3 -3 -32 -27 -65 -52 -33 -26
-152 -121 -265 -211 -113 -90 -338 -269 -500 -397 -162 -129 -405 -322 -540
-429 -135 -107 -297 -236 -360 -286 -63 -50 -193 -154 -289 -231 -96 -76 -197
-157 -226 -179 -63 -48 -362 -285 -570 -450 -83 -66 -211 -167 -285 -224 -74
-58 -164 -128 -200 -156 -36 -28 -117 -92 -180 -140 -63 -49 -167 -130 -230
-180 -63 -50 -153 -120 -200 -156 -47 -35 -87 -67 -90 -70 -4 -5 -149 -119
-284 -224 -28 -21 -128 -100 -222 -175 -94 -74 -211 -166 -260 -205 -49 -38
-152 -119 -229 -180 -125 -99 -230 -181 -415 -325 -32 -25 -141 -110 -242
-189 -100 -80 -208 -164 -238 -187 -30 -24 -105 -83 -166 -131 -62 -49 -156
-123 -210 -165 -297 -231 -465 -362 -603 -471 -85 -67 -176 -137 -203 -155
-79 -54 -68 -62 80 -59 l128 2 109 90 c60 50 148 122 195 160 68 54 347 284
545 446 11 9 74 61 140 115 66 54 303 247 526 430 224 183 503 410 620 506
432 351 647 527 843 687 317 260 808 664 956 787 74 61 200 164 280 228 80 65
242 195 360 290 118 96 294 237 390 315 448 364 1246 1006 1314 1060 33 25 89
71 125 101 37 31 199 162 361 292 331 265 786 632 1113 896 120 98 233 188
250 202 54 42 356 284 477 382 63 51 142 114 175 140 33 26 72 57 86 70 26 22
134 109 359 290 580 464 560 448 548 448 -3 0 -44 -30 -90 -66z"/>
<path d="M15929 8824 c-7 -9 -36 -30 -64 -46 -27 -16 -81 -51 -120 -79 -38
-27 -113 -78 -165 -113 -52 -35 -149 -101 -215 -146 -66 -46 -181 -124 -255
-175 -208 -141 -327 -222 -425 -290 -257 -177 -324 -223 -480 -329 -93 -64
-242 -165 -330 -225 -88 -60 -232 -159 -320 -219 -88 -60 -191 -130 -230 -157
-38 -27 -187 -128 -330 -225 -143 -97 -309 -211 -370 -253 -60 -42 -279 -191
-485 -331 -206 -140 -406 -277 -445 -304 -142 -98 -761 -519 -1100 -748 -143
-97 -316 -214 -385 -261 -69 -47 -334 -226 -590 -398 -444 -298 -851 -572
-1420 -955 -203 -137 -262 -181 -270 -204 -13 -36 -13 -103 -1 -111 5 -3 65
34 133 83 68 49 341 241 608 427 267 186 575 402 685 480 592 419 579 410
1418 994 456 318 689 479 892 619 44 31 103 71 130 91 28 19 113 79 190 132
77 53 190 131 250 173 61 42 151 104 200 138 50 34 110 76 135 93 25 17 90 62
145 100 55 38 125 87 157 109 31 23 94 67 140 98 45 31 182 125 303 209 121
84 276 191 345 239 69 47 150 104 180 125 30 22 89 62 130 90 149 102 537 370
640 442 92 65 218 152 735 509 66 46 170 117 230 158 61 41 148 102 195 135
47 34 109 75 138 93 28 18 52 36 52 40 0 13 -17 9 -31 -8z"/>
<path d="M14305 8441 c-171 -100 -1257 -734 -1319 -769 -51 -29 -249 -146
-376 -221 -52 -30 -105 -61 -117 -68 -13 -6 -67 -38 -120 -69 -54 -32 -123
-72 -153 -89 -30 -18 -230 -134 -445 -259 -214 -126 -437 -255 -495 -289 -58
-33 -168 -98 -245 -143 -169 -100 -842 -491 -905 -526 -25 -14 -97 -56 -160
-93 -134 -78 -576 -332 -635 -364 -22 -12 -56 -31 -75 -42 -37 -22 -256 -145
-352 -198 -64 -35 -561 -320 -858 -491 -364 -210 -1860 -1065 -1985 -1135 -74
-41 -88 -52 -76 -60 6 -3 11 -40 11 -87 l0 -80 23 15 c12 9 108 68 212 130
276 167 785 475 970 589 88 53 214 130 280 169 206 122 265 157 860 516 548
330 918 554 1400 848 116 70 311 187 435 260 124 73 367 217 540 320 173 103
351 209 395 235 115 68 328 194 490 290 77 46 214 127 305 180 383 226 733
433 1005 595 160 94 369 218 465 275 229 135 507 299 755 446 110 65 209 124
220 130 49 26 116 74 103 74 -2 0 -70 -40 -153 -89z m-5455 -3215 c0 -7 -101
-71 -160 -101 -30 -16 -64 -37 -75 -46 -11 -9 -47 -31 -80 -49 -33 -18 -170
-99 -305 -180 -135 -80 -252 -149 -260 -153 -8 -4 -46 -27 -85 -51 -83 -52
-342 -203 -394 -230 -20 -10 -47 -27 -60 -37 -13 -10 -27 -16 -32 -13 -5 3 -9
1 -9 -5 0 -5 -11 -16 -24 -23 -13 -7 -42 -23 -65 -36 -24 -13 -48 -21 -54 -19
-7 3 3 10 21 17 17 7 32 16 32 20 0 5 16 14 35 20 21 7 32 16 29 22 -4 7 -2 8
4 4 7 -4 12 -3 12 3 0 5 10 13 23 17 12 4 24 9 27 13 3 3 17 13 31 21 15 8 52
32 83 53 31 20 63 37 71 37 8 0 15 4 15 9 0 5 14 14 32 22 17 7 57 29 87 50
76 50 360 219 369 219 4 1 45 25 92 55 47 30 105 65 130 78 25 13 79 44 120
68 41 25 102 60 135 78 33 19 67 39 75 46 8 6 31 18 50 25 19 8 37 17 40 21
14 18 90 57 90 45z"/>
<path d="M24450 7963 c51 -71 89 -124 256 -350 72 -98 189 -257 259 -353 71
-96 171 -233 223 -305 53 -71 126 -170 162 -220 97 -131 461 -627 560 -764 47
-65 198 -272 336 -462 138 -189 295 -408 350 -485 286 -408 524 -740 596 -832
46 -59 47 -60 103 -64 31 -1 59 0 61 3 5 9 -282 390 -670 889 -315 405 -592
771 -1434 1895 -654 873 -821 1093 -834 1101 -5 3 10 -21 32 -53z"/>
<path d="M17298 7793 c-70 -87 -135 -169 -147 -183 -11 -14 -70 -88 -131 -165
-61 -77 -151 -189 -200 -250 -133 -165 -529 -665 -575 -725 -22 -29 -56 -72
-75 -95 -128 -156 -196 -242 -234 -292 -23 -32 -60 -79 -82 -104 -21 -26 -67
-82 -101 -125 -102 -128 -352 -443 -368 -462 -8 -9 -305 -381 -660 -827 -356
-445 -654 -819 -664 -830 -31 -38 -1896 -2366 -1985 -2478 -48 -62 -106 -131
-127 -154 -45 -49 -50 -73 -14 -73 62 0 56 -7 540 615 94 120 224 287 290 371
66 84 156 199 200 255 44 57 116 148 160 204 131 167 308 392 416 530 55 72
154 198 219 280 145 183 459 582 663 844 84 106 181 230 217 276 36 45 110
140 166 211 55 71 221 282 369 469 148 187 329 417 403 510 316 401 395 501
557 705 93 118 190 242 215 275 25 33 99 127 166 210 66 82 152 191 190 241
38 50 114 147 169 215 55 69 147 185 204 258 57 73 109 138 115 144 7 7 58 73
115 147 57 74 108 141 114 148 5 6 7 12 5 12 -3 0 -61 -71 -130 -157z"/>
<path d="M33511 7710 c9 -5 52 -23 95 -39 44 -16 187 -71 319 -121 311 -119
442 -166 485 -174 33 -7 34 -6 16 9 -11 8 -26 15 -33 15 -12 0 -162 54 -378
135 -49 19 -160 59 -245 89 -85 30 -177 64 -203 75 -49 21 -86 28 -56 11z"/>
<path d="M26860 7068 c239 -238 480 -480 534 -538 55 -58 251 -258 435 -445
340 -344 1080 -1100 1356 -1385 83 -85 238 -245 345 -355 107 -110 256 -263
331 -340 74 -77 207 -214 295 -305 88 -91 218 -226 289 -300 72 -74 134 -135
139 -135 9 0 192 254 221 306 7 14 10 30 7 35 -6 9 -266 240 -442 394 -41 36
-136 119 -210 185 -75 66 -223 197 -330 290 -106 94 -242 213 -300 265 -59 52
-197 174 -306 271 -603 535 -780 693 -871 774 -55 50 -176 158 -269 241 -93
83 -261 234 -374 335 -113 101 -260 232 -325 290 -271 241 -356 318 -485 438
-274 256 -420 386 -454 402 -11 6 175 -184 414 -423z"/>
<path d="M29720 7396 c0 -3 62 -42 138 -87 75 -44 163 -97 194 -116 32 -19 68
-39 80 -46 13 -7 91 -52 173 -102 83 -49 233 -138 335 -198 433 -257 685 -407
835 -501 182 -113 593 -363 675 -411 55 -32 346 -209 700 -425 102 -62 217
-132 255 -155 141 -85 240 -147 257 -162 19 -17 38 -10 38 16 0 9 4 21 9 27 5
5 18 32 29 61 l20 52 -22 19 c-11 10 -131 77 -266 149 -135 72 -270 144 -300
161 -30 16 -138 75 -240 130 -102 54 -282 152 -400 217 -118 64 -404 220 -635
345 -231 125 -523 285 -650 355 -126 70 -295 164 -375 208 -331 183 -414 228
-588 325 -207 116 -262 144 -262 138z"/>
<path d="M20866 6353 c-4 -115 -11 -372 -16 -573 -5 -201 -14 -471 -19 -600
-6 -129 -18 -449 -26 -710 -28 -875 -35 -1074 -45 -1220 -12 -166 -40 -681
-40 -723 l0 -28 83 3 82 3 -3 275 c-1 151 -3 1064 -5 2028 -1 963 -2 1752 -3
1752 -1 0 -4 -93 -8 -207z"/>
<path d="M29980 6301 c23 -19 196 -139 490 -340 155 -106 601 -412 938 -643
430 -295 1074 -741 1144 -793 155 -114 586 -420 753 -535 99 -68 195 -137 214
-153 33 -28 35 -29 48 -11 12 16 11 19 -4 26 -10 5 -38 24 -63 42 -25 19 -65
47 -90 62 -25 15 -93 63 -152 106 -59 43 -110 78 -113 78 -9 0 -69 44 -82 60
-7 8 -13 11 -13 7 0 -5 -26 11 -57 35 -32 24 -69 49 -83 56 -31 16 -51 32 -69
54 -12 16 -11 17 16 8 16 -6 40 -21 55 -35 14 -13 29 -21 32 -18 3 4 6 1 6 -5
0 -6 9 -14 20 -17 11 -3 26 -12 33 -20 17 -16 148 -104 196 -130 20 -11 53
-37 75 -57 21 -21 48 -38 61 -38 12 0 30 -9 40 -20 11 -12 34 -28 53 -37 46
-22 143 -98 135 -107 -3 -3 0 -6 8 -6 8 0 20 5 27 12 27 27 48 11 -423 320
-315 206 -386 252 -475 307 -191 117 -591 381 -1759 1160 -525 350 -961 640
-970 644 -9 5 -5 -1 9 -12z"/>
<path d="M23441 6122 c-1 -7 15 -52 35 -100 20 -47 51 -125 69 -172 54 -141
173 -443 330 -840 81 -206 164 -418 185 -470 20 -52 70 -178 110 -280 70 -177
247 -628 370 -945 33 -82 86 -220 120 -305 34 -85 95 -243 137 -350 41 -107
126 -325 189 -485 63 -159 132 -335 154 -390 96 -247 155 -398 196 -505 83
-215 99 -245 128 -248 32 -4 33 8 5 68 -11 25 -87 212 -169 415 -81 204 -187
467 -235 585 -48 118 -96 235 -105 260 -27 70 -80 202 -95 235 -16 37 -125
307 -176 438 -94 237 -174 435 -204 507 -13 30 -83 204 -155 385 -73 182 -142
355 -155 385 -13 30 -154 381 -313 780 -246 615 -373 930 -412 1025 -5 11 -9
14 -9 7z"/>
<path d="M18295 5298 c-32 -84 -75 -198 -96 -253 -20 -55 -96 -257 -169 -450
-72 -192 -149 -395 -169 -450 -21 -55 -79 -208 -128 -340 -50 -132 -126 -332
-168 -445 -42 -113 -91 -243 -109 -290 -18 -47 -49 -128 -69 -180 -20 -52 -60
-158 -90 -235 -29 -77 -72 -189 -95 -250 -23 -60 -78 -204 -123 -320 -79 -205
-110 -296 -103 -304 2 -2 10 -1 19 3 22 8 17 -4 200 496 96 262 120 327 270
735 101 272 187 508 264 720 34 94 70 190 81 215 10 25 30 77 43 117 23 64
248 676 282 763 7 19 38 103 69 185 30 83 78 212 106 289 28 76 49 140 47 142
-2 3 -30 -64 -62 -148z"/>
<path d="M24552 5365 c10 -18 217 -442 358 -735 76 -157 226 -464 334 -684
108 -219 196 -399 196 -401 0 -1 75 -155 166 -341 91 -187 185 -379 209 -429
23 -49 98 -202 165 -340 67 -137 150 -308 185 -380 227 -472 286 -585 310
-601 14 -9 28 -14 31 -12 2 3 -264 545 -592 1204 -328 660 -718 1444 -866
1744 -377 762 -479 963 -491 975 -6 7 -8 7 -5 0z"/>
<path d="M21904 5295 c3 -27 8 -81 11 -120 4 -38 13 -117 20 -175 18 -129 50
-424 65 -585 6 -66 24 -226 40 -355 16 -129 36 -314 45 -410 8 -96 26 -269 40
-385 13 -115 31 -302 40 -415 16 -220 16 -215 45 -485 10 -99 26 -270 35 -380
8 -110 29 -321 45 -470 16 -148 34 -335 40 -415 13 -179 36 -427 55 -580 8
-63 19 -178 25 -255 5 -77 13 -168 16 -202 l6 -63 109 0 c81 0 109 3 109 13 0
6 -13 95 -29 197 -16 102 -35 230 -41 285 -6 55 -24 179 -40 275 -16 96 -36
236 -45 310 -9 74 -29 214 -45 310 -16 96 -34 222 -40 280 -6 58 -25 188 -41
290 -16 102 -36 241 -44 310 -15 126 -35 259 -60 405 -8 44 -24 152 -35 240
-11 88 -32 231 -45 317 -13 87 -34 235 -45 330 -11 95 -32 252 -45 348 -30
215 -44 326 -90 690 -59 467 -96 734 -102 740 -3 3 -3 -17 1 -45z"/>
<path d="M19877 5206 c-3 -8 -15 -72 -27 -143 -51 -319 -184 -1130 -220 -1338
-21 -126 -45 -270 -53 -320 -33 -195 -89 -507 -117 -645 -16 -80 -45 -237 -64
-350 -69 -404 -107 -617 -126 -715 -11 -55 -29 -158 -41 -230 -11 -71 -34
-194 -50 -274 -17 -84 -26 -148 -21 -153 5 -5 42 -8 83 -6 l73 3 13 80 c30
191 63 428 73 530 6 61 24 198 40 305 16 107 36 258 45 335 8 77 26 217 40
310 13 94 31 243 39 332 9 89 25 217 36 285 11 68 31 213 45 323 14 110 34
252 45 315 11 63 31 203 45 310 14 107 37 265 50 350 13 85 33 227 45 315 12
88 30 212 40 275 17 111 19 137 7 106z"/>
<path d="M17398 4797 c-29 -56 -162 -332 -210 -436 -35 -77 -65 -139 -329
-699 -27 -57 -49 -105 -49 -106 0 -2 -58 -125 -128 -272 -71 -148 -140 -294
-154 -324 -15 -30 -58 -122 -97 -203 -39 -82 -71 -150 -71 -152 0 -1 -45 -97
-101 -211 -159 -329 -179 -372 -179 -383 0 -16 26 -13 40 4 16 19 76 144 155
320 63 141 111 246 145 320 98 211 220 478 220 481 0 2 14 32 31 66 17 35 48
101 69 148 40 90 153 335 200 435 58 124 170 367 170 370 0 2 25 56 55 120 30
64 80 171 111 238 31 67 78 169 105 226 52 109 63 147 17 58z"/>
<path d="M25560 4806 c0 -8 67 -134 80 -151 7 -9 77 -127 215 -365 17 -30 69
-118 115 -195 45 -77 129 -219 185 -315 56 -96 162 -276 235 -400 73 -124 158
-268 188 -320 30 -52 96 -165 147 -250 50 -85 102 -173 115 -195 12 -22 90
-155 173 -295 83 -140 171 -291 197 -335 95 -164 150 -234 150 -193 0 11 -426
733 -665 1128 -22 36 -683 1140 -775 1295 -43 72 -124 207 -181 300 -56 94
-118 197 -136 230 -37 64 -43 73 -43 61z"/>
</g>
</svg>
